<?xml version="1.0" standalone="no"?>
<!DOCTYPE svg PUBLIC "-//W3C//DTD SVG 20010904//EN"
 "http://www.w3.org/TR/2001/REC-SVG-20010904/DTD/svg10.dtd">
<svg version="1.0" xmlns="http://www.w3.org/2000/svg"
 width="280.000000pt" height="280.000000pt" viewBox="0 0 280.000000 280.000000"
 preserveAspectRatio="xMidYMid meet">
<metadata>
Created by potrace 1.14, written by Peter Selinger 2001-2017
</metadata>
<g transform="translate(0.000000,280.000000) scale(0.100000,-0.100000)"
fill="#000000" stroke="none">
<path d="M242 1403 l3 -1158 1158 -3 1157 -2 -2 1157 -3 1158 -1158 3 -1157 2
2 -1157z m1268 926 c91 -41 141 -114 141 -205 0 -66 -6 -88 -42 -141 -49 -71
-169 -110 -202 -64 -13 20 -13 20 -43 1 -53 -36 -123 -20 -145 32 -17 42 -5
122 29 182 46 82 123 121 187 95 17 -6 49 -11 73 -10 23 2 42 -1 42 -6 0 -4
-22 -64 -49 -133 -27 -69 -47 -128 -44 -132 10 -17 53 -7 84 19 62 52 84 138
53 211 -48 116 -181 164 -299 108 -208 -98 -186 -389 33 -452 91 -27 212 6
291 80 27 25 31 27 22 8 -20 -38 -82 -94 -130 -116 -67 -30 -179 -29 -245 3
-216 106 -219 403 -5 510 78 39 177 43 249 10z m-504 -552 l381 -176 412 190
c226 104 413 189 416 189 3 0 4 -278 3 -617 l-3 -616 -380 -139 c-340 -124
-386 -138 -445 -138 -59 -1 -101 12 -447 137 l-383 138 0 618 0 617 33 -14
c17 -7 204 -93 413 -189z"/>
<path d="M1393 2187 c-68 -37 -145 -225 -99 -243 44 -17 96 45 136 161 24 71
24 72 2 84 -11 6 -25 5 -39 -2z"/>
<path d="M722 1293 l3 -437 270 -98 c149 -54 280 -101 293 -104 l22 -6 -2 407
-3 407 -278 128 c-153 71 -284 131 -293 134 -12 5 -14 -51 -12 -431z"/>
</g>
</svg>
