<svg id="chart" width="200" height="100" viewBox="0 0 200 100" xmlns="http://www.w3.org/2000/svg">
  <path d="  M0,100  h8  v--3.9151941801921026  q0,-4 -4,-4  h-0  q-4,0 -4,4  Z" fill="#444cf7" />
  <path d="  M10,100  h8  v-0.6956085403650292  q0,-4 -4,-4  h-0  q-4,0 -4,4  Z" fill="#444cf7" />
  <path d="  M20,100  h8  v-1.870417437741338  q0,-4 -4,-4  h-0  q-4,0 -4,4  Z" fill="#444cf7" />
  <path d="  M30,100  h8  v-5.043855344510632  q0,-4 -4,-4  h-0  q-4,0 -4,4  Z" fill="#444cf7" />
  <path d="  M40,100  h8  v-15.540222790530237  q0,-4 -4,-4  h-0  q-4,0 -4,4  Z" fill="#444cf7" />
  <path d="  M50,100  h8  v-13.716718711708253  q0,-4 -4,-4  h-0  q-4,0 -4,4  Z" fill="#444cf7" />
  <path d="  M60,100  h8  v-22.515845095710517  q0,-4 -4,-4  h-0  q-4,0 -4,4  Z" fill="#444cf7" />
  <path d="  M70,100  h8  v-26.63518137359823  q0,-4 -4,-4  h-0  q-4,0 -4,4  Z" fill="#444cf7" />
  <path d="  M80,100  h8  v-21.479562902335502  q0,-4 -4,-4  h-0  q-4,0 -4,4  Z" fill="#444cf7" />
  <path d="  M90,100  h8  v-35.72584440110985  q0,-4 -4,-4  h-0  q-4,0 -4,4  Z" fill="#444cf7" />
  <path d="  M100,100  h8  v-44.29305833389377  q0,-4 -4,-4  h-0  q-4,0 -4,4  Z" fill="#444cf7" />
  <path d="  M110,100  h8  v-33.018170376287074  q0,-4 -4,-4  h-0  q-4,0 -4,4  Z" fill="#444cf7" />
  <path d="  M120,100  h8  v-44.18835679211051  q0,-4 -4,-4  h-0  q-4,0 -4,4  Z" fill="#444cf7" />
  <path d="  M130,100  h8  v-58.59679447827584  q0,-4 -4,-4  h-0  q-4,0 -4,4  Z" fill="#444cf7" />
  <path d="  M140,100  h8  v-42.62535843895888  q0,-4 -4,-4  h-0  q-4,0 -4,4  Z" fill="#444cf7" />
  <path d="  M150,100  h8  v-68.38319815728147  q0,-4 -4,-4  h-0  q-4,0 -4,4  Z" fill="#444cf7" />
  <path d="  M160,100  h8  v-53.94455904493214  q0,-4 -4,-4  h-0  q-4,0 -4,4  Z" fill="#444cf7" />
  <path d="  M170,100  h8  v-43.72262475982178  q0,-4 -4,-4  h-0  q-4,0 -4,4  Z" fill="#444cf7" />
  <path d="  M180,100  h8  v-48.90035146349115  q0,-4 -4,-4  h-0  q-4,0 -4,4  Z" fill="#444cf7" />
  <path d="  M190,100  h8  v-57.82236087437522  q0,-4 -4,-4  h-0  q-4,0 -4,4  Z" fill="#444cf7" />
</svg>
